<mxfile host="app.diagrams.net" modified="2023-10-23T10:45:18.567Z" agent="Mozilla/5.0 (Windows NT 10.0; Win64; x64) AppleWebKit/537.36 (KHTML, like Gecko) Chrome/116.0.0.0 Safari/537.36 OPR/102.0.0.0 (Edition Yx GX)" etag="2hemvvP93wmBXtyhr-xY" version="22.0.6" type="github">
  <diagram id="C5RBs43oDa-KdzZeNtuy" name="Page-1">
    <mxGraphModel dx="1261" dy="1895" grid="1" gridSize="10" guides="1" tooltips="1" connect="1" arrows="1" fold="1" page="1" pageScale="1" pageWidth="827" pageHeight="1169" math="0" shadow="0">
      <root>
        <mxCell id="WIyWlLk6GJQsqaUBKTNV-0" />
        <mxCell id="WIyWlLk6GJQsqaUBKTNV-1" parent="WIyWlLk6GJQsqaUBKTNV-0" />
        <mxCell id="2oJ4uX5vXp8lFPD3sLWW-13" value="" style="edgeStyle=orthogonalEdgeStyle;rounded=0;orthogonalLoop=1;jettySize=auto;html=1;entryX=0.5;entryY=0;entryDx=0;entryDy=0;" edge="1" parent="WIyWlLk6GJQsqaUBKTNV-1" target="2oJ4uX5vXp8lFPD3sLWW-15">
          <mxGeometry relative="1" as="geometry">
            <mxPoint x="170" y="-120" as="targetPoint" />
            <mxPoint x="170" y="-160" as="sourcePoint" />
          </mxGeometry>
        </mxCell>
        <mxCell id="2oJ4uX5vXp8lFPD3sLWW-14" value="&lt;p style=&quot;line-height: 110%;&quot;&gt;&lt;font style=&quot;font-size: 18px;&quot;&gt;main&lt;/font&gt;&lt;/p&gt;" style="ellipse;whiteSpace=wrap;html=1;" vertex="1" parent="WIyWlLk6GJQsqaUBKTNV-1">
          <mxGeometry x="115" y="-220" width="110" height="60" as="geometry" />
        </mxCell>
        <mxCell id="2oJ4uX5vXp8lFPD3sLWW-15" value="&lt;span style=&quot;font-size: 25px;&quot;&gt;Ввод &lt;br&gt;m&lt;br&gt;&lt;/span&gt;" style="shape=parallelogram;perimeter=parallelogramPerimeter;whiteSpace=wrap;html=1;fixedSize=1;" vertex="1" parent="WIyWlLk6GJQsqaUBKTNV-1">
          <mxGeometry x="111" y="-80" width="120" height="60" as="geometry" />
        </mxCell>
        <mxCell id="2oJ4uX5vXp8lFPD3sLWW-16" value="" style="edgeStyle=orthogonalEdgeStyle;rounded=0;orthogonalLoop=1;jettySize=auto;html=1;" edge="1" parent="WIyWlLk6GJQsqaUBKTNV-1">
          <mxGeometry relative="1" as="geometry">
            <mxPoint x="169.99999999999994" y="-20" as="sourcePoint" />
            <mxPoint x="169.99999999999994" y="20" as="targetPoint" />
          </mxGeometry>
        </mxCell>
        <mxCell id="2oJ4uX5vXp8lFPD3sLWW-26" value="&lt;span style=&quot;font-size: 20px;&quot;&gt;m&lt;/span&gt;" style="rhombus;whiteSpace=wrap;html=1;" vertex="1" parent="WIyWlLk6GJQsqaUBKTNV-1">
          <mxGeometry x="124" y="20" width="92" height="80" as="geometry" />
        </mxCell>
        <mxCell id="2oJ4uX5vXp8lFPD3sLWW-27" value="" style="edgeStyle=orthogonalEdgeStyle;rounded=0;orthogonalLoop=1;jettySize=auto;html=1;exitX=0.5;exitY=1;exitDx=0;exitDy=0;" edge="1" parent="WIyWlLk6GJQsqaUBKTNV-1" source="2oJ4uX5vXp8lFPD3sLWW-26">
          <mxGeometry relative="1" as="geometry">
            <mxPoint x="170" y="-130" as="targetPoint" />
            <mxPoint x="240" y="70" as="sourcePoint" />
            <Array as="points">
              <mxPoint x="170" y="600" />
              <mxPoint x="80" y="600" />
              <mxPoint x="80" y="-130" />
            </Array>
          </mxGeometry>
        </mxCell>
        <mxCell id="2oJ4uX5vXp8lFPD3sLWW-28" value="default" style="text;html=1;align=center;verticalAlign=middle;resizable=0;points=[];autosize=1;strokeColor=none;fillColor=none;labelBorderColor=none;labelBackgroundColor=default;fontSize=20;" vertex="1" parent="WIyWlLk6GJQsqaUBKTNV-1">
          <mxGeometry x="132" y="539" width="80" height="40" as="geometry" />
        </mxCell>
        <mxCell id="2oJ4uX5vXp8lFPD3sLWW-30" value="" style="endArrow=classic;html=1;rounded=0;entryX=0.5;entryY=0;entryDx=0;entryDy=0;" edge="1" parent="WIyWlLk6GJQsqaUBKTNV-1" target="2oJ4uX5vXp8lFPD3sLWW-33">
          <mxGeometry width="50" height="50" relative="1" as="geometry">
            <mxPoint x="170" y="240" as="sourcePoint" />
            <mxPoint x="280" y="290" as="targetPoint" />
            <Array as="points">
              <mxPoint x="300" y="240" />
            </Array>
          </mxGeometry>
        </mxCell>
        <mxCell id="2oJ4uX5vXp8lFPD3sLWW-31" value="1" style="text;html=1;align=center;verticalAlign=middle;resizable=0;points=[];autosize=1;strokeColor=none;fillColor=none;labelBorderColor=none;labelBackgroundColor=default;fontSize=20;" vertex="1" parent="WIyWlLk6GJQsqaUBKTNV-1">
          <mxGeometry x="220" y="218" width="30" height="40" as="geometry" />
        </mxCell>
        <mxCell id="2oJ4uX5vXp8lFPD3sLWW-33" value="&lt;span style=&quot;font-size: 25px;&quot;&gt;Ввод &lt;br&gt;n&lt;br&gt;&lt;/span&gt;" style="shape=parallelogram;perimeter=parallelogramPerimeter;whiteSpace=wrap;html=1;fixedSize=1;" vertex="1" parent="WIyWlLk6GJQsqaUBKTNV-1">
          <mxGeometry x="240" y="287" width="120" height="60" as="geometry" />
        </mxCell>
        <mxCell id="2oJ4uX5vXp8lFPD3sLWW-34" value="&lt;span style=&quot;font-size: 20px;&quot;&gt;n &amp;lt; 1&lt;/span&gt;" style="rhombus;whiteSpace=wrap;html=1;" vertex="1" parent="WIyWlLk6GJQsqaUBKTNV-1">
          <mxGeometry x="254" y="390" width="92" height="80" as="geometry" />
        </mxCell>
        <mxCell id="2oJ4uX5vXp8lFPD3sLWW-36" value="" style="endArrow=classic;html=1;rounded=0;exitX=0.5;exitY=1;exitDx=0;exitDy=0;entryX=0.5;entryY=0;entryDx=0;entryDy=0;" edge="1" parent="WIyWlLk6GJQsqaUBKTNV-1" source="2oJ4uX5vXp8lFPD3sLWW-33" target="2oJ4uX5vXp8lFPD3sLWW-34">
          <mxGeometry width="50" height="50" relative="1" as="geometry">
            <mxPoint x="390" y="340" as="sourcePoint" />
            <mxPoint x="440" y="290" as="targetPoint" />
          </mxGeometry>
        </mxCell>
        <mxCell id="2oJ4uX5vXp8lFPD3sLWW-38" value="" style="endArrow=classic;html=1;rounded=0;exitX=1;exitY=0.5;exitDx=0;exitDy=0;" edge="1" parent="WIyWlLk6GJQsqaUBKTNV-1" source="2oJ4uX5vXp8lFPD3sLWW-34">
          <mxGeometry width="50" height="50" relative="1" as="geometry">
            <mxPoint x="390" y="340" as="sourcePoint" />
            <mxPoint x="420" y="500" as="targetPoint" />
            <Array as="points">
              <mxPoint x="420" y="430" />
            </Array>
          </mxGeometry>
        </mxCell>
        <mxCell id="2oJ4uX5vXp8lFPD3sLWW-39" value="Нет" style="text;html=1;align=center;verticalAlign=middle;resizable=0;points=[];autosize=1;strokeColor=none;fillColor=none;labelBorderColor=none;labelBackgroundColor=default;fontSize=20;" vertex="1" parent="WIyWlLk6GJQsqaUBKTNV-1">
          <mxGeometry x="352" y="410" width="60" height="40" as="geometry" />
        </mxCell>
        <mxCell id="2oJ4uX5vXp8lFPD3sLWW-41" value="" style="endArrow=classic;html=1;rounded=0;exitX=0;exitY=0.5;exitDx=0;exitDy=0;" edge="1" parent="WIyWlLk6GJQsqaUBKTNV-1" source="2oJ4uX5vXp8lFPD3sLWW-34">
          <mxGeometry width="50" height="50" relative="1" as="geometry">
            <mxPoint x="254" y="433" as="sourcePoint" />
            <mxPoint x="300" y="263" as="targetPoint" />
            <Array as="points">
              <mxPoint x="200" y="430" />
              <mxPoint x="200" y="263" />
            </Array>
          </mxGeometry>
        </mxCell>
        <mxCell id="2oJ4uX5vXp8lFPD3sLWW-42" value="a = init(n)" style="shape=process;whiteSpace=wrap;html=1;backgroundOutline=1;fontSize=20;" vertex="1" parent="WIyWlLk6GJQsqaUBKTNV-1">
          <mxGeometry x="360" y="500" width="120" height="60" as="geometry" />
        </mxCell>
        <mxCell id="2oJ4uX5vXp8lFPD3sLWW-44" value="" style="endArrow=none;html=1;rounded=0;exitX=0.5;exitY=1;exitDx=0;exitDy=0;endFill=0;" edge="1" parent="WIyWlLk6GJQsqaUBKTNV-1" source="2oJ4uX5vXp8lFPD3sLWW-42">
          <mxGeometry width="50" height="50" relative="1" as="geometry">
            <mxPoint x="370" y="580" as="sourcePoint" />
            <mxPoint x="170" y="600" as="targetPoint" />
            <Array as="points">
              <mxPoint x="420" y="600" />
            </Array>
          </mxGeometry>
        </mxCell>
        <mxCell id="2oJ4uX5vXp8lFPD3sLWW-47" value="" style="endArrow=classic;html=1;rounded=0;" edge="1" parent="WIyWlLk6GJQsqaUBKTNV-1">
          <mxGeometry width="50" height="50" relative="1" as="geometry">
            <mxPoint x="170" y="220" as="sourcePoint" />
            <mxPoint x="510" y="310" as="targetPoint" />
            <Array as="points">
              <mxPoint x="510" y="220" />
            </Array>
          </mxGeometry>
        </mxCell>
        <mxCell id="2oJ4uX5vXp8lFPD3sLWW-48" value="2" style="text;html=1;align=center;verticalAlign=middle;resizable=0;points=[];autosize=1;strokeColor=none;fillColor=none;labelBorderColor=none;labelBackgroundColor=default;fontSize=20;" vertex="1" parent="WIyWlLk6GJQsqaUBKTNV-1">
          <mxGeometry x="300" y="200" width="30" height="40" as="geometry" />
        </mxCell>
        <mxCell id="2oJ4uX5vXp8lFPD3sLWW-49" value="print(a, n)" style="shape=process;whiteSpace=wrap;html=1;backgroundOutline=1;fontSize=20;" vertex="1" parent="WIyWlLk6GJQsqaUBKTNV-1">
          <mxGeometry x="450" y="285" width="120" height="60" as="geometry" />
        </mxCell>
        <mxCell id="2oJ4uX5vXp8lFPD3sLWW-50" value="" style="endArrow=none;html=1;rounded=0;exitX=0.5;exitY=1;exitDx=0;exitDy=0;endFill=0;" edge="1" parent="WIyWlLk6GJQsqaUBKTNV-1" source="2oJ4uX5vXp8lFPD3sLWW-49">
          <mxGeometry width="50" height="50" relative="1" as="geometry">
            <mxPoint x="340" y="360" as="sourcePoint" />
            <mxPoint x="420" y="600" as="targetPoint" />
            <Array as="points">
              <mxPoint x="510" y="600" />
            </Array>
          </mxGeometry>
        </mxCell>
        <mxCell id="2oJ4uX5vXp8lFPD3sLWW-51" value="" style="endArrow=classic;html=1;rounded=0;entryX=0.5;entryY=0;entryDx=0;entryDy=0;" edge="1" parent="WIyWlLk6GJQsqaUBKTNV-1" target="2oJ4uX5vXp8lFPD3sLWW-54">
          <mxGeometry width="50" height="50" relative="1" as="geometry">
            <mxPoint x="170" y="200" as="sourcePoint" />
            <mxPoint x="690" y="260" as="targetPoint" />
            <Array as="points">
              <mxPoint x="690" y="200" />
            </Array>
          </mxGeometry>
        </mxCell>
        <mxCell id="2oJ4uX5vXp8lFPD3sLWW-52" value="3" style="text;html=1;align=center;verticalAlign=middle;resizable=0;points=[];autosize=1;strokeColor=none;fillColor=none;labelBorderColor=none;labelBackgroundColor=default;fontSize=20;" vertex="1" parent="WIyWlLk6GJQsqaUBKTNV-1">
          <mxGeometry x="423" y="178" width="30" height="40" as="geometry" />
        </mxCell>
        <mxCell id="2oJ4uX5vXp8lFPD3sLWW-54" value="&lt;span style=&quot;font-size: 25px;&quot;&gt;Ввод &lt;br&gt;x, i&lt;br&gt;&lt;/span&gt;" style="shape=parallelogram;perimeter=parallelogramPerimeter;whiteSpace=wrap;html=1;fixedSize=1;" vertex="1" parent="WIyWlLk6GJQsqaUBKTNV-1">
          <mxGeometry x="630" y="282" width="120" height="60" as="geometry" />
        </mxCell>
        <mxCell id="2oJ4uX5vXp8lFPD3sLWW-55" value="&lt;span style=&quot;font-size: 20px;&quot;&gt;i &amp;lt; 0&lt;/span&gt;" style="rhombus;whiteSpace=wrap;html=1;" vertex="1" parent="WIyWlLk6GJQsqaUBKTNV-1">
          <mxGeometry x="644" y="370" width="92" height="80" as="geometry" />
        </mxCell>
        <mxCell id="2oJ4uX5vXp8lFPD3sLWW-56" value="" style="endArrow=classic;html=1;rounded=0;entryX=0.5;entryY=0;entryDx=0;entryDy=0;exitX=0.5;exitY=1;exitDx=0;exitDy=0;" edge="1" parent="WIyWlLk6GJQsqaUBKTNV-1" target="2oJ4uX5vXp8lFPD3sLWW-55" source="2oJ4uX5vXp8lFPD3sLWW-54">
          <mxGeometry width="50" height="50" relative="1" as="geometry">
            <mxPoint x="690" y="350" as="sourcePoint" />
            <mxPoint x="830" y="258" as="targetPoint" />
          </mxGeometry>
        </mxCell>
        <mxCell id="2oJ4uX5vXp8lFPD3sLWW-57" value="" style="endArrow=classic;html=1;rounded=0;exitX=0;exitY=0.5;exitDx=0;exitDy=0;" edge="1" parent="WIyWlLk6GJQsqaUBKTNV-1" source="2oJ4uX5vXp8lFPD3sLWW-55">
          <mxGeometry width="50" height="50" relative="1" as="geometry">
            <mxPoint x="644" y="457" as="sourcePoint" />
            <mxPoint x="690" y="230" as="targetPoint" />
            <Array as="points">
              <mxPoint x="600" y="410" />
              <mxPoint x="600" y="230" />
            </Array>
          </mxGeometry>
        </mxCell>
        <mxCell id="2oJ4uX5vXp8lFPD3sLWW-59" value="" style="endArrow=classic;html=1;rounded=0;entryX=0.5;entryY=0;entryDx=0;entryDy=0;" edge="1" parent="WIyWlLk6GJQsqaUBKTNV-1" target="2oJ4uX5vXp8lFPD3sLWW-60">
          <mxGeometry width="50" height="50" relative="1" as="geometry">
            <mxPoint x="737" y="410" as="sourcePoint" />
            <mxPoint x="790" y="468" as="targetPoint" />
            <Array as="points">
              <mxPoint x="790" y="410" />
            </Array>
          </mxGeometry>
        </mxCell>
        <mxCell id="2oJ4uX5vXp8lFPD3sLWW-60" value="a = insert(a, n, x, i)" style="shape=process;whiteSpace=wrap;html=1;backgroundOutline=1;fontSize=20;" vertex="1" parent="WIyWlLk6GJQsqaUBKTNV-1">
          <mxGeometry x="682" y="500" width="215" height="60" as="geometry" />
        </mxCell>
        <mxCell id="2oJ4uX5vXp8lFPD3sLWW-61" value="" style="endArrow=classic;html=1;rounded=0;entryX=0.5;entryY=0;entryDx=0;entryDy=0;" edge="1" parent="WIyWlLk6GJQsqaUBKTNV-1" target="2oJ4uX5vXp8lFPD3sLWW-64">
          <mxGeometry width="50" height="50" relative="1" as="geometry">
            <mxPoint x="170" y="180" as="sourcePoint" />
            <mxPoint x="890" y="250" as="targetPoint" />
            <Array as="points">
              <mxPoint x="917" y="180" />
            </Array>
          </mxGeometry>
        </mxCell>
        <mxCell id="2oJ4uX5vXp8lFPD3sLWW-62" value="" style="endArrow=none;html=1;rounded=0;exitX=0.5;exitY=1;exitDx=0;exitDy=0;endFill=0;" edge="1" parent="WIyWlLk6GJQsqaUBKTNV-1" source="2oJ4uX5vXp8lFPD3sLWW-60">
          <mxGeometry width="50" height="50" relative="1" as="geometry">
            <mxPoint x="510" y="430" as="sourcePoint" />
            <mxPoint x="510" y="600" as="targetPoint" />
            <Array as="points">
              <mxPoint x="790" y="600" />
            </Array>
          </mxGeometry>
        </mxCell>
        <mxCell id="2oJ4uX5vXp8lFPD3sLWW-63" value="4" style="text;html=1;align=center;verticalAlign=middle;resizable=0;points=[];autosize=1;strokeColor=none;fillColor=none;labelBorderColor=none;labelBackgroundColor=default;fontSize=20;" vertex="1" parent="WIyWlLk6GJQsqaUBKTNV-1">
          <mxGeometry x="544" y="159" width="30" height="40" as="geometry" />
        </mxCell>
        <mxCell id="2oJ4uX5vXp8lFPD3sLWW-64" value="&lt;span style=&quot;font-size: 25px;&quot;&gt;i&lt;br&gt;&lt;/span&gt;" style="shape=parallelogram;perimeter=parallelogramPerimeter;whiteSpace=wrap;html=1;fixedSize=1;" vertex="1" parent="WIyWlLk6GJQsqaUBKTNV-1">
          <mxGeometry x="857" y="282" width="120" height="60" as="geometry" />
        </mxCell>
        <mxCell id="2oJ4uX5vXp8lFPD3sLWW-65" value="&lt;span style=&quot;font-size: 20px;&quot;&gt;i &amp;lt; 0 || i &amp;gt; n&lt;/span&gt;" style="rhombus;whiteSpace=wrap;html=1;" vertex="1" parent="WIyWlLk6GJQsqaUBKTNV-1">
          <mxGeometry x="842" y="370" width="150" height="80" as="geometry" />
        </mxCell>
        <mxCell id="2oJ4uX5vXp8lFPD3sLWW-66" value="" style="endArrow=classic;html=1;rounded=0;entryX=0.5;entryY=0;entryDx=0;entryDy=0;exitX=0.5;exitY=1;exitDx=0;exitDy=0;" edge="1" parent="WIyWlLk6GJQsqaUBKTNV-1" source="2oJ4uX5vXp8lFPD3sLWW-64" target="2oJ4uX5vXp8lFPD3sLWW-65">
          <mxGeometry width="50" height="50" relative="1" as="geometry">
            <mxPoint x="917" y="350" as="sourcePoint" />
            <mxPoint x="1057" y="258" as="targetPoint" />
          </mxGeometry>
        </mxCell>
        <mxCell id="2oJ4uX5vXp8lFPD3sLWW-67" value="" style="endArrow=classic;html=1;rounded=0;exitX=0;exitY=0.5;exitDx=0;exitDy=0;" edge="1" parent="WIyWlLk6GJQsqaUBKTNV-1" source="2oJ4uX5vXp8lFPD3sLWW-65">
          <mxGeometry width="50" height="50" relative="1" as="geometry">
            <mxPoint x="871" y="457" as="sourcePoint" />
            <mxPoint x="917" y="230" as="targetPoint" />
            <Array as="points">
              <mxPoint x="827" y="410" />
              <mxPoint x="827" y="230" />
            </Array>
          </mxGeometry>
        </mxCell>
        <mxCell id="2oJ4uX5vXp8lFPD3sLWW-68" value="" style="endArrow=classic;html=1;rounded=0;entryX=0.5;entryY=0;entryDx=0;entryDy=0;" edge="1" parent="WIyWlLk6GJQsqaUBKTNV-1" target="2oJ4uX5vXp8lFPD3sLWW-69">
          <mxGeometry width="50" height="50" relative="1" as="geometry">
            <mxPoint x="990" y="410" as="sourcePoint" />
            <mxPoint x="1017" y="468" as="targetPoint" />
            <Array as="points">
              <mxPoint x="1017" y="410" />
            </Array>
          </mxGeometry>
        </mxCell>
        <mxCell id="2oJ4uX5vXp8lFPD3sLWW-69" value="a = delete(a, n, i)" style="shape=process;whiteSpace=wrap;html=1;backgroundOutline=1;fontSize=20;" vertex="1" parent="WIyWlLk6GJQsqaUBKTNV-1">
          <mxGeometry x="915" y="500" width="208" height="60" as="geometry" />
        </mxCell>
        <mxCell id="2oJ4uX5vXp8lFPD3sLWW-70" value="" style="endArrow=none;html=1;rounded=0;exitX=0.5;exitY=1;exitDx=0;exitDy=0;endFill=0;" edge="1" parent="WIyWlLk6GJQsqaUBKTNV-1">
          <mxGeometry width="50" height="50" relative="1" as="geometry">
            <mxPoint x="1016" y="560" as="sourcePoint" />
            <mxPoint x="736" y="600" as="targetPoint" />
            <Array as="points">
              <mxPoint x="1016" y="600" />
            </Array>
          </mxGeometry>
        </mxCell>
        <mxCell id="2oJ4uX5vXp8lFPD3sLWW-71" value="" style="endArrow=classic;html=1;rounded=0;" edge="1" parent="WIyWlLk6GJQsqaUBKTNV-1">
          <mxGeometry width="50" height="50" relative="1" as="geometry">
            <mxPoint x="170" y="156" as="sourcePoint" />
            <mxPoint x="1160" y="280" as="targetPoint" />
            <Array as="points">
              <mxPoint x="1160" y="156" />
            </Array>
          </mxGeometry>
        </mxCell>
        <mxCell id="2oJ4uX5vXp8lFPD3sLWW-72" value="5" style="text;html=1;align=center;verticalAlign=middle;resizable=0;points=[];autosize=1;strokeColor=none;fillColor=none;labelBorderColor=none;labelBackgroundColor=default;fontSize=20;" vertex="1" parent="WIyWlLk6GJQsqaUBKTNV-1">
          <mxGeometry x="700" y="135" width="30" height="40" as="geometry" />
        </mxCell>
        <mxCell id="2oJ4uX5vXp8lFPD3sLWW-73" value="a = formB(a, n)" style="shape=process;whiteSpace=wrap;html=1;backgroundOutline=1;fontSize=20;" vertex="1" parent="WIyWlLk6GJQsqaUBKTNV-1">
          <mxGeometry x="1074" y="282" width="170" height="60" as="geometry" />
        </mxCell>
        <mxCell id="2oJ4uX5vXp8lFPD3sLWW-74" value="" style="endArrow=none;html=1;rounded=0;exitX=0.5;exitY=1;exitDx=0;exitDy=0;endFill=0;" edge="1" parent="WIyWlLk6GJQsqaUBKTNV-1">
          <mxGeometry width="50" height="50" relative="1" as="geometry">
            <mxPoint x="1164" y="342" as="sourcePoint" />
            <mxPoint x="1010" y="600" as="targetPoint" />
            <Array as="points">
              <mxPoint x="1164" y="600" />
            </Array>
          </mxGeometry>
        </mxCell>
        <mxCell id="2oJ4uX5vXp8lFPD3sLWW-75" value="" style="endArrow=classic;html=1;rounded=0;entryX=0.5;entryY=0;entryDx=0;entryDy=0;" edge="1" parent="WIyWlLk6GJQsqaUBKTNV-1" target="2oJ4uX5vXp8lFPD3sLWW-79">
          <mxGeometry width="50" height="50" relative="1" as="geometry">
            <mxPoint x="170" y="135" as="sourcePoint" />
            <mxPoint x="1350" y="260" as="targetPoint" />
            <Array as="points">
              <mxPoint x="1351" y="135" />
            </Array>
          </mxGeometry>
        </mxCell>
        <mxCell id="2oJ4uX5vXp8lFPD3sLWW-79" value="free(a)" style="rounded=0;whiteSpace=wrap;html=1;fontSize=20;" vertex="1" parent="WIyWlLk6GJQsqaUBKTNV-1">
          <mxGeometry x="1270" y="289.5" width="162.82" height="51" as="geometry" />
        </mxCell>
        <mxCell id="2oJ4uX5vXp8lFPD3sLWW-80" value="&lt;p style=&quot;line-height: 110%;&quot;&gt;&lt;font style=&quot;font-size: 18px;&quot;&gt;Выход&lt;/font&gt;&lt;/p&gt;" style="ellipse;whiteSpace=wrap;html=1;" vertex="1" parent="WIyWlLk6GJQsqaUBKTNV-1">
          <mxGeometry x="1296" y="380" width="110" height="60" as="geometry" />
        </mxCell>
        <mxCell id="2oJ4uX5vXp8lFPD3sLWW-81" value="" style="endArrow=classic;html=1;rounded=0;exitX=0.5;exitY=1;exitDx=0;exitDy=0;entryX=0.5;entryY=0;entryDx=0;entryDy=0;" edge="1" parent="WIyWlLk6GJQsqaUBKTNV-1" source="2oJ4uX5vXp8lFPD3sLWW-79" target="2oJ4uX5vXp8lFPD3sLWW-80">
          <mxGeometry width="50" height="50" relative="1" as="geometry">
            <mxPoint x="1320" y="330" as="sourcePoint" />
            <mxPoint x="1370" y="280" as="targetPoint" />
          </mxGeometry>
        </mxCell>
        <mxCell id="2oJ4uX5vXp8lFPD3sLWW-82" value="6" style="text;html=1;align=center;verticalAlign=middle;resizable=0;points=[];autosize=1;strokeColor=none;fillColor=none;labelBorderColor=none;labelBackgroundColor=default;fontSize=20;" vertex="1" parent="WIyWlLk6GJQsqaUBKTNV-1">
          <mxGeometry x="823" y="113" width="30" height="40" as="geometry" />
        </mxCell>
      </root>
    </mxGraphModel>
  </diagram>
</mxfile>
